<svg xmlns="http://www.w3.org/2000/svg" width="147" height="25.09"><path data-name="bg_rating_active1" d="M13.5.61l-2.925 9.35L.5 9.77l8.267 5.58-3.3 9.24 8.034-5.9 8.034 5.9-3.3-9.24 8.267-5.58-10.074.19zm30-.04l-2.925 9.37L30.5 9.75l8.267 5.59-3.3 9.25 8.034-5.91 8.034 5.91-3.3-9.25 8.267-5.59-10.074.19zm30-.03l-2.925 9.38L60.5 9.73l8.267 5.6-3.3 9.26 8.034-5.92 8.034 5.92-3.3-9.26 8.267-5.6-10.074.19zm30-.03l-2.925 9.39L90.5 9.71l8.267 5.61-3.3 9.27 8.034-5.93 8.034 5.93-3.3-9.27 8.267-5.61-10.074.19zm30 0l-2.925 9.39-10.075-.19 8.267 5.61-3.3 9.27 8.034-5.93 8.034 5.93-3.3-9.27 8.267-5.61-10.074.19z" fill="#fff" stroke="#3cd072" fill-rule="evenodd"/></svg>