<svg xmlns="http://www.w3.org/2000/svg" width="29" height="34"><path fill="#FFF" fill-rule="evenodd" d="M24.226 18.07c.048 5.14 4.73 6.852 4.783 6.875-.043.119-.75 2.438-2.468 4.832-1.486 2.07-3.025 4.132-5.453 4.173-2.387.043-3.155-1.348-5.882-1.348s-3.58 1.307-5.837 1.391c-2.345.083-4.128-2.238-5.625-4.299-3.062-4.218-5.4-11.92-2.26-17.121 1.56-2.582 4.348-4.216 7.374-4.258 2.3-.041 4.473 1.476 5.88 1.476 1.406 0 4.046-1.826 6.821-1.558 1.162.048 4.422.448 6.516 3.369-.167.1-3.892 2.167-3.849 6.468zm-9.77-10.222c-.273-1.951.736-3.984 1.889-5.256C17.632 1.157 19.802.087 21.594.017c.229 1.991-.608 3.989-1.853 5.426-1.245 1.436-3.287 2.553-5.285 2.405z"/></svg>